# xmcd
#
# Track frame offsets:
#	150
#	14268
#	27981
#	41858
#	56733
#	70848
#	84516
#	93576
#	107231
#	119951
#	132538
#	176628
#	191801
#	207836
#	218563
#	231743
#
# Disc length: 3265
#
# Revision: 1
# Processed by: cddbd v1.5.1PL0 Copyright (c) Steve Scherf et al.
# Submitted via: EasyCDDAExtractor 4.6.0.1
# Normalized: r0:DSETVAR1,TDELIM( - )
#
DISCID=fa0cbf10
DTITLE=Various Artist - Ladies Sig The Blues
DYEAR=1900
DGENRE=Blues
TTITLE0=Billie Holiday - God Bless the Child
TTITLE1=Ella Fitzgerald - Basin Street Blues
TTITLE2=Della Reese - Come Rain or Come Shine
TTITLE3=Billie Holiday - Lover Man
TTITLE4=Big Maybelle - Oh Lord
TTITLE5=Ella Fitzgerald - Under the Spell of the Blues
TTITLE6=Billie Holiday - When Your Lover Has Gone
TTITLE7=Dinah Washington - Blues on my Weary Mind
TTITLE8=Pearl Bailey - St Louis Blues
TTITLE9=Big Maybelle - I Cried For You
TTITLE10=Dinah Washington - Lover Come Back to Me
TTITLE11=Lena Horne - Stormy Weather
TTITLE12=Ella Fitzgerald - Limehouse Blues
TTITLE13=Billie Holiday - I Got it Bad and That Ain't Good
TTITLE14=Dinah Washington - Rich Man's Blues
TTITLE15=Billie Holiday - Billie's Blues
EXTD=
EXTT0=
EXTT1=
EXTT2=
EXTT3=
EXTT4=
EXTT5=
EXTT6=
EXTT7=
EXTT8=
EXTT9=
EXTT10=
EXTT11=
EXTT12=
EXTT13=
EXTT14=
EXTT15=
PLAYORDER=
